<?xml version="1.0" encoding="utf-8"?>
<!-- Generator: Adobe Illustrator 27.1.1, SVG Export Plug-In . SVG Version: 6.00 Build 0)  -->
<svg version="1.1" id="Capa_1" xmlns="http://www.w3.org/2000/svg" xmlns:xlink="http://www.w3.org/1999/xlink" x="0px" y="0px"
	 viewBox="0 0 500 230" style="enable-background:new 0 0 500 230;" xml:space="preserve">
<style type="text/css">
	.st0{fill:#FFFFFF;}
</style>
<g>
	<g>
		<path class="st0" d="M4.4,142.6h5.1c0.7,0,1.2,0.6,1.2,1.2v18.9c0,0.7-0.6,1.2-1.2,1.2H4.4c-0.7,0-1.2-0.6-1.2-1.2v-18.9
			C3.2,143.1,3.7,142.6,4.4,142.6z"/>
		<path class="st0" d="M16.2,117.8h4c1,0,1.8,0.8,1.8,1.8v23c0,1-0.8,1.8-1.8,1.8h-4c-1,0-1.8-0.8-1.8-1.8v-23
			C14.4,118.6,15.2,117.8,16.2,117.8z"/>
		<path class="st0" d="M15.6,147.4h5.1c0.7,0,1.2,0.6,1.2,1.2v20c0,0.7-0.6,1.2-1.2,1.2h-5.1c-0.7,0-1.2-0.6-1.2-1.2v-20
			C14.4,148,14.9,147.4,15.6,147.4z"/>
		<path class="st0" d="M26.9,92.7H32c0.7,0,1.2,0.6,1.2,1.2v37.4c0,0.7-0.6,1.2-1.2,1.2h-5.1c-0.7,0-1.2-0.6-1.2-1.2V94
			C25.6,93.3,26.2,92.7,26.9,92.7z"/>
		<path class="st0" d="M26.9,136.2H32c0.7,0,1.2,0.6,1.2,1.2V149c0,0.7-0.6,1.2-1.2,1.2h-5.1c-0.7,0-1.2-0.6-1.2-1.2v-11.6
			C25.6,136.7,26.2,136.2,26.9,136.2z"/>
		<path class="st0" d="M27.4,159.7h4c1,0,1.8,0.8,1.8,1.8v6.6c0,1-0.8,1.8-1.8,1.8h-4c-1,0-1.8-0.8-1.8-1.8v-6.6
			C25.6,160.5,26.4,159.7,27.4,159.7z"/>
		<path class="st0" d="M38.1,75h5.1c0.7,0,1.2,0.6,1.2,1.2v26.5c0,0.7-0.6,1.2-1.2,1.2h-5.1c-0.7,0-1.2-0.6-1.2-1.2V76.2
			C36.8,75.6,37.4,75,38.1,75z"/>
		<path class="st0" d="M38.1,107.2h5.1c0.7,0,1.2,0.6,1.2,1.2v35.9c0,0.7-0.5,1.2-1.2,1.2h-5.1c-0.7,0-1.2-0.6-1.2-1.2v-35.9
			C36.8,107.7,37.4,107.2,38.1,107.2z"/>
		<path class="st0" d="M49.3,69.5h5.1c0.7,0,1.2,0.6,1.2,1.2v17.6c0,0.7-0.6,1.2-1.2,1.2h-5.1c-0.7,0-1.2-0.6-1.2-1.2V70.8
			C48.1,70.1,48.6,69.5,49.3,69.5z"/>
		<path class="st0" d="M49.3,92.8h5.1c0.7,0,1.2,0.6,1.2,1.2v25.4c0,0.7-0.6,1.2-1.2,1.2h-5.1c-0.7,0-1.2-0.6-1.2-1.2V94
			C48.1,93.3,48.6,92.8,49.3,92.8z"/>
		<path class="st0" d="M49.3,124.3h5.1c0.7,0,1.2,0.6,1.2,1.2v22.8c0,0.7-0.6,1.2-1.2,1.2h-5.1c-0.7,0-1.2-0.6-1.2-1.2v-22.8
			C48.1,124.9,48.6,124.3,49.3,124.3z"/>
		<path class="st0" d="M61.1,65.1h4c1,0,1.8,0.8,1.8,1.8V100c0,1-0.8,1.8-1.8,1.8h-4c-1,0-1.8-0.8-1.8-1.8V66.9
			C59.3,65.9,60.1,65.1,61.1,65.1z"/>
		<path class="st0" d="M61.1,105.5h4c1,0,1.8,0.8,1.8,1.8v7.7c0,1-0.8,1.8-1.8,1.8h-4c-1,0-1.8-0.8-1.8-1.8v-7.7
			C59.3,106.3,60.1,105.5,61.1,105.5z"/>
		<path class="st0" d="M61.1,119.3h4c1,0,1.8,0.8,1.8,1.8v34.3c0,1-0.8,1.8-1.8,1.8h-4c-1,0-1.8-0.8-1.8-1.8v-34.3
			C59.3,120.1,60.1,119.3,61.1,119.3z"/>
		<path class="st0" d="M72.3,60.7h4c1,0,1.8,0.8,1.8,1.8v6.6c0,1-0.8,1.8-1.8,1.8h-4c-1,0-1.8-0.8-1.8-1.8v-6.6
			C70.5,61.5,71.3,60.7,72.3,60.7z"/>
		<path class="st0" d="M72.3,74h4c1,0,1.8,0.8,1.8,1.8v50.8c0,1-0.8,1.8-1.8,1.8h-4c-1,0-1.8-0.8-1.8-1.8V75.7
			C70.5,74.8,71.3,74,72.3,74z"/>
		<path class="st0" d="M72.3,132h4c1,0,1.8,0.8,1.8,1.8v13.8c0,1-0.8,1.8-1.8,1.8h-4c-1,0-1.8-0.8-1.8-1.8v-13.8
			C70.5,132.8,71.3,132,72.3,132z"/>
		<path class="st0" d="M72.3,153.1h4c1,0,1.8,0.8,1.8,1.8v8.8c0,1-0.8,1.8-1.8,1.8h-4c-1,0-1.8-0.8-1.8-1.8v-8.8
			C70.5,153.9,71.3,153.1,72.3,153.1z"/>
		<path class="st0" d="M83.5,150.3h4c1,0,1.8,0.8,1.8,1.8v16c0,1-0.8,1.8-1.8,1.8h-4c-1,0-1.8-0.8-1.8-1.8v-16
			C81.7,151.1,82.5,150.3,83.5,150.3z"/>
		<path class="st0" d="M83.5,95h4c1,0,1.8,0.8,1.8,1.8V136c0,1-0.8,1.8-1.8,1.8h-4c-1,0-1.8-0.8-1.8-1.8V96.8
			C81.7,95.8,82.5,95,83.5,95z"/>
		<path class="st0" d="M83.5,60.1h4c1,0,1.8,0.8,1.8,1.8v27.6c0,1-0.8,1.8-1.8,1.8h-4c-1,0-1.8-0.8-1.8-1.8V61.9
			C81.7,60.9,82.5,60.1,83.5,60.1z"/>
		<path class="st0" d="M94.8,158.6h4c1,0,1.8,0.8,1.8,1.8v7.7c0,1-0.8,1.8-1.8,1.8h-4c-1,0-1.8-0.8-1.8-1.8v-7.7
			C93,159.4,93.8,158.6,94.8,158.6z"/>
		<path class="st0" d="M94.8,60.7h4c1,0,1.8,0.8,1.8,1.8v47c0,1-0.8,1.8-1.8,1.8h-4c-1,0-1.8-0.8-1.8-1.8v-47
			C93,61.5,93.8,60.7,94.8,60.7z"/>
		<path class="st0" d="M94.8,114.9h4c1,0,1.8,0.8,1.8,1.8V136c0,1-0.8,1.8-1.8,1.8h-4c-1,0-1.8-0.8-1.8-1.8v-19.3
			C93,115.7,93.8,114.9,94.8,114.9z"/>
		<path class="st0" d="M106,62.9h4c1,0,1.8,0.8,1.8,1.8v13.2c0,1-0.8,1.8-1.8,1.8h-4c-1,0-1.8-0.8-1.8-1.8V64.7
			C104.2,63.7,105,62.9,106,62.9z"/>
		<path class="st0" d="M106,83.4h4c1,0,1.8,0.8,1.8,1.8V136c0,1-0.8,1.8-1.8,1.8h-4c-1,0-1.8-0.8-1.8-1.8V85.1
			C104.2,84.2,105,83.4,106,83.4z"/>
		<path class="st0" d="M117.2,64h4c1,0,1.8,0.8,1.8,1.8v29.3c0,1-0.8,1.8-1.8,1.8h-4c-1,0-1.8-0.8-1.8-1.8V65.8
			C115.4,64.8,116.2,64,117.2,64z"/>
		<path class="st0" d="M117.2,100.5h4c1,0,1.8,0.8,1.8,1.8v24.3c0,1-0.8,1.8-1.8,1.8h-4c-1,0-1.8-0.8-1.8-1.8v-24.3
			C115.4,101.3,116.2,100.5,117.2,100.5z"/>
		<path class="st0" d="M117.2,132h4c1,0,1.8,0.8,1.8,1.8v11c0,1-0.8,1.8-1.8,1.8h-4c-1,0-1.8-0.8-1.8-1.8v-11
			C115.4,132.8,116.2,132,117.2,132z"/>
		<path class="st0" d="M128.3,65.7h4c1,0,1.8,0.8,1.8,1.8v45.3c0,1-0.8,1.8-1.8,1.8h-4c-1,0-1.8-0.8-1.8-1.8V67.5
			C126.6,66.5,127.4,65.7,128.3,65.7z"/>
		<path class="st0" d="M128.4,118.2h4c1,0,1.8,0.8,1.8,1.8v35.9c0,1-0.8,1.8-1.8,1.8h-4c-1,0-1.8-0.8-1.8-1.8V120
			C126.6,119,127.4,118.2,128.4,118.2L128.4,118.2z"/>
		<path class="st0" d="M139.5,64h4c1,0,1.8,0.8,1.8,1.8v19.3c0,1-0.8,1.8-1.8,1.8h-4c-1,0-1.8-0.8-1.8-1.8V65.8
			C137.7,64.8,138.5,64,139.5,64z"/>
		<path class="st0" d="M139.5,90.6h4c1,0,1.8,0.8,1.8,1.8v56.4c0,1-0.8,1.8-1.8,1.8h-4c-1,0-1.8-0.8-1.8-1.8V92.3
			C137.7,91.4,138.5,90.6,139.5,90.6z"/>
		<path class="st0" d="M139.5,154.2h4c1,0,1.8,0.8,1.8,1.8v10.4c0,1-0.8,1.8-1.8,1.8h-4c-1,0-1.8-0.8-1.8-1.8V156
			C137.7,155,138.5,154.2,139.5,154.2z"/>
		<path class="st0" d="M150.7,150.8h4c1,0,1.8,0.8,1.8,1.8v15.4c0,1-0.8,1.8-1.8,1.8h-4c-1,0-1.8-0.8-1.8-1.8v-15.4
			C148.9,151.7,149.7,150.9,150.7,150.8L150.7,150.8z"/>
		<path class="st0" d="M150.7,103.8h4c1,0,1.8,0.8,1.8,1.8v10.5c0,1-0.8,1.8-1.8,1.8h-4c-1,0-1.8-0.8-1.8-1.8v-10.5
			C148.9,104.6,149.7,103.8,150.7,103.8z"/>
		<path class="st0" d="M150.7,63.5h4c1,0,1.8,0.8,1.8,1.8v33.1c0,1-0.8,1.8-1.8,1.8h-4c-1,0-1.8-0.8-1.8-1.8V65.2
			C148.9,64.3,149.7,63.5,150.7,63.5z"/>
		<path class="st0" d="M162.1,66.2h4c1,0,1.8,0.8,1.8,1.8v42c0,1-0.8,1.8-1.8,1.8h-4c-1,0-1.8-0.8-1.8-1.8V68
			C160.3,67,161.1,66.2,162.1,66.2L162.1,66.2z"/>
		<path class="st0" d="M162.1,159.7h4c1,0,1.8,0.8,1.8,1.8v6.6c0,1-0.8,1.8-1.8,1.8h-4c-1,0-1.8-0.8-1.8-1.8v-6.6
			C160.3,160.5,161.1,159.7,162.1,159.7z"/>
		<path class="st0" d="M173.2,69.5h4c1,0,1.8,0.8,1.8,1.8v10.5c0,1-0.8,1.8-1.8,1.8h-4c-1,0-1.8-0.8-1.8-1.8V71.3
			C171.4,70.3,172.2,69.5,173.2,69.5z"/>
		<path class="st0" d="M173.2,87.2h4c1,0,1.8,0.8,1.8,1.8v19.9c0,1-0.8,1.8-1.8,1.8h-4c-1,0-1.8-0.8-1.8-1.8V89
			C171.4,88,172.2,87.2,173.2,87.2z"/>
		<path class="st0" d="M184.5,72.3h4c1,0,1.8,0.8,1.8,1.8v6.6c0,1-0.8,1.8-1.8,1.8h-4c-1,0-1.8-0.8-1.8-1.8v-6.6
			C182.7,73.1,183.5,72.3,184.5,72.3z"/>
		<path class="st0" d="M184.5,85.6h4c1,0,1.8,0.8,1.8,1.8v6c0,1-0.8,1.8-1.8,1.8h-4c-1,0-1.8-0.8-1.8-1.8v-6
			C182.7,86.4,183.5,85.6,184.5,85.6z"/>
		<path class="st0" d="M184.5,98.3h4c1,0,1.8,0.8,1.8,1.8v9.9c0,1-0.8,1.8-1.8,1.8h-4c-1,0-1.8-0.8-1.8-1.8v-9.9
			C182.7,99.1,183.5,98.3,184.5,98.3z"/>
		<path class="st0" d="M195.8,75.6h4c1,0,1.8,0.8,1.8,1.8v34.2c0,1-0.8,1.8-1.8,1.8h-4c-1,0-1.8-0.8-1.8-1.8V77.4
			C194,76.4,194.8,75.6,195.8,75.6z"/>
		<path class="st0" d="M206.9,85.6h4c1,0,1.8,0.8,1.8,1.8v23.2c0,1-0.8,1.8-1.8,1.8h-4c-1,0-1.8-0.8-1.8-1.8V87.4
			C205.1,86.4,205.9,85.6,206.9,85.6z"/>
		<path class="st0" d="M218,98.3h4c1,0,1.8,0.8,1.8,1.8v6.6c0,1-0.8,1.8-1.8,1.8h-4c-1,0-1.8-0.8-1.8-1.8v-6.6
			C216.2,99.1,217,98.3,218,98.3z"/>
	</g>
	<g>
		<path class="st0" d="M284.2,82c4,0,7.5,0.7,10.4,2c2.9,1.4,5.1,3.3,6.7,5.8s2.4,5.6,2.4,9.1s-0.8,6.6-2.4,9.1
			c-1.6,2.5-3.8,4.5-6.7,5.8s-6.3,2-10.4,2h-11.1v18.7h-11V82L284.2,82L284.2,82z M282.5,107.3c3.3,0,5.8-0.7,7.4-2.1
			c1.6-1.4,2.5-3.5,2.5-6.2s-0.8-4.8-2.5-6.2c-1.6-1.4-4.1-2.1-7.4-2.1h-9.4v16.6H282.5z"/>
		<path class="st0" d="M329.6,94c4,0,7.6,0.8,10.7,2.5c3.1,1.6,5.5,4,7.2,7.1c1.7,3.1,2.6,6.8,2.6,11.2s-0.9,8-2.6,11.1
			c-1.7,3.1-4.1,5.5-7.2,7.1s-6.6,2.5-10.7,2.5s-7.5-0.8-10.6-2.5c-3.1-1.6-5.5-4-7.2-7.1s-2.6-6.8-2.6-11.1s0.9-8.1,2.6-11.2
			c1.7-3.1,4.1-5.4,7.2-7.1C322.1,94.8,325.7,94,329.6,94z M329.6,102.1c-2,0-3.7,0.5-5.1,1.4s-2.5,2.3-3.2,4.2
			c-0.8,1.9-1.1,4.2-1.1,7s0.4,5.2,1.1,7c0.7,1.9,1.8,3.3,3.2,4.2c1.4,0.9,3.1,1.4,5.1,1.4s3.7-0.5,5.1-1.4s2.5-2.3,3.2-4.2
			c0.7-1.9,1.1-4.2,1.1-7s-0.4-5.2-1.1-7s-1.8-3.3-3.2-4.2C333.3,102.6,331.6,102.1,329.6,102.1z"/>
		<path class="st0" d="M370,77.3v45.1c0,1.9,0.3,3.2,1,3.9c0.6,0.8,1.7,1.1,3.2,1.1c0.9,0,1.6-0.1,2.2-0.2c0.6-0.1,1.3-0.3,2.2-0.6
			l-1,7.2c-0.9,0.5-2,0.9-3.4,1.2c-1.4,0.3-2.7,0.4-4,0.4c-3.9,0-6.7-0.9-8.5-2.8s-2.7-4.9-2.7-9.1V77.3L370,77.3L370,77.3z"/>
		<path class="st0" d="M407.9,109.2c0-2.3-0.6-4.1-2-5.4c-1.3-1.3-3-1.9-5.1-1.9c-2,0-3.7,0.5-5.2,1.5c-1.5,1-2.6,2.7-3.3,5
			l-9.3-2.9c0.9-3.5,2.9-6.3,6-8.5s7.2-3.2,12.3-3.2c3.5,0,6.6,0.6,9.2,1.6s4.6,2.7,6.1,4.9c1.5,2.2,2.2,4.9,2.2,8.2v16.2
			c0,2,1,3,2.9,3c0.9,0,1.8-0.1,2.5-0.4l-0.6,6.8c-1.4,0.7-3.1,1-5.2,1c-1.9,0-3.5-0.3-5-1s-2.7-1.6-3.5-2.9s-1.3-2.9-1.3-4.9v-0.3
			l1.9-0.3c-0.3,2-1.2,3.7-2.6,5.1c-1.4,1.4-3.2,2.5-5.2,3.2c-2,0.7-4.2,1.1-6.4,1.1c-2.7,0-5.1-0.4-7-1.2c-2-0.8-3.5-2-4.5-3.6
			c-1.1-1.6-1.6-3.6-1.6-5.9c0-3,1-5.4,2.9-7.3s4.7-3.2,8.2-3.9l15-3l-0.1,6.8l-9.6,1.9c-1.8,0.4-3.2,0.9-4.1,1.5s-1.4,1.6-1.4,3
			s0.5,2.3,1.5,3c1,0.7,2.2,1,3.5,1c1.1,0,2.2-0.1,3.3-0.4c1.1-0.3,2-0.7,2.9-1.3c0.9-0.6,1.5-1.4,2-2.4s0.7-2.2,0.7-3.7
			L407.9,109.2L407.9,109.2z"/>
		<path class="st0" d="M430.9,134.7V94.8h9.5l0.7,7.8c1.1-2.8,2.6-4.9,4.7-6.4c2-1.5,4.6-2.2,7.7-2.2c0.9,0,1.7,0.1,2.5,0.2
			s1.4,0.4,1.8,0.6l-1.3,9.2c-0.5-0.2-1.2-0.4-2-0.5c-0.8-0.1-1.8-0.2-3-0.2c-1.6,0-3.1,0.4-4.6,1.2s-2.7,1.9-3.7,3.5
			c-1,1.6-1.4,3.6-1.4,5.9v20.7L430.9,134.7L430.9,134.7z"/>
		<path class="st0" d="M479.5,135.5c-4,0-7.7-0.7-11-2.1c-3.3-1.4-6-3.5-8.1-6.1l6.3-6.4c1.3,1.9,3,3.5,5.1,4.7
			c2.1,1.2,4.7,1.8,7.6,1.8c2.1,0,3.7-0.3,5-0.9c1.2-0.6,1.9-1.6,1.9-2.9c0-0.9-0.3-1.6-0.9-2.2s-1.8-1.1-3.5-1.5l-7-1.4
			c-4.6-1-7.9-2.4-9.9-4.4c-1.9-1.9-2.9-4.5-2.9-7.5c0-2.2,0.6-4.2,2-6.1c1.3-1.9,3.3-3.5,5.9-4.7s5.9-1.8,9.7-1.8s7.5,0.6,10.4,1.9
			c3,1.2,5.3,3.1,7,5.6l-6.5,6.4c-1.2-1.9-2.7-3.3-4.6-4.3c-1.9-1-3.9-1.5-6-1.5c-1.5,0-2.8,0.2-3.8,0.5s-1.9,0.8-2.4,1.3
			c-0.5,0.6-0.8,1.3-0.8,2.1s0.4,1.6,1.1,2.2c0.7,0.6,2.1,1.1,4.1,1.6l8.1,1.7c3.9,0.8,6.8,2.1,8.5,4c1.7,1.9,2.5,4.2,2.5,6.8
			s-0.7,4.8-2,6.8c-1.4,2-3.4,3.6-6,4.7C486.6,134.9,483.4,135.5,479.5,135.5L479.5,135.5z"/>
	</g>
</g>
</svg>
